<?xml version="1.0" encoding="UTF-8"?>
<svg id="Layer_1" data-name="Layer 1" xmlns="http://www.w3.org/2000/svg" xmlns:xlink="http://www.w3.org/1999/xlink" viewBox="0 0 1474.02 314.65">
  <defs>
    <style>
      .cls-1 {
        fill: none;
      }

      .cls-2 {
        fill: #26397e;
      }

      .cls-3 {
        fill: #FFD300;
      }

      .cls-4 {
        fill: #bf2026;
      }

      .cls-5 {
        fill: #004e8a;
      }

      .cls-6 {
        fill-rule: evenodd;
      }

      .cls-6, .cls-7 {
        fill: #fbfbfb;
      }

      .cls-8 {
        clip-path: url(#clippath);
      }
    </style>
    <clipPath id="clippath">
      <rect class="cls-1" x="27.77" y="27.23" width="94.71" height="189.44"/>
    </clipPath>
  </defs>
  <rect class="cls-3" width="1474.02" height="314.65" rx="14.17" ry="14.17"/>
  <g>
    <path d="M402.57,126.28v-30.04s0-11.2-11.2-11.2h-51.16s0,52.44,0,52.44h51.16c11.2,0,11.2-11.2,11.2-11.2M442.25,126.28s0,50.88-50.88,50.88h-51.16s0,92.12,0,92.12h-39.68V45.35h90.84c50.88,0,50.88,50.88,50.88,50.88v30.04"/>
    <polyline points="615.17 269.29 473.44 269.29 473.44 45.35 513.13 45.35 513.13 229.61 615.17 229.61 615.17 269.29"/>
    <path d="M729.94,189.92l-12.72-54.7-12.72,54.7h25.44M788.09,269.29h-39.68s-9.23-39.68-9.23-39.68h-43.9s-9.23,39.68-9.23,39.68h-39.68s.04-4.71,1.03-8.99l49.99-214.95h39.69s49.99,214.95,49.99,214.95c1,4.28,1.03,8.99,1.03,8.99"/>
    <polyline points="961 85.04 909.98 85.04 909.98 269.29 870.29 269.29 870.29 85.04 819.27 85.04 819.27 45.35 961 45.35 961 85.04"/>
    <polyline points="1133.91 269.29 992.18 269.29 992.18 45.35 1133.91 45.35 1133.91 85.04 1031.86 85.04 1031.86 137.48 1094.23 137.48 1094.23 177.17 1031.86 177.17 1031.86 229.61 1133.91 229.61 1133.91 269.29"/>
    <path d="M1306.83,45.35s-.06,12.25-5.73,26.16l-45.15,110.84v86.94h-39.97v-86.94s-45.15-110.84-45.15-110.84c-5.67-13.91-5.73-26.16-5.73-26.16h39.68s-.35,3.45,2.8,11.2l28.38,69.73,28.38-69.73c3.15-7.75,2.8-11.2,2.8-11.2h39.69"/>
    <path class="cls-5" d="M25.62,300.47c-6.33,0-11.45-5.13-11.45-11.45V25.63c0-6.33,5.12-11.45,11.45-11.45h98.99c6.32,0,11.45,5.13,11.45,11.45v263.39c0,6.33-5.13,11.45-11.45,11.45H25.62"/>
    <path class="cls-7" d="M69.98,231.11v33.79c0,13.02-7.12,19.54-21.35,19.54-7.23,0-12.74-2.09-16.5-6.29-2.7-3.03-4.05-7.24-4.05-12.59v-34.44h11.07v33.72c0,3.42.93,6.04,2.75,7.89,1.66,1.68,3.81,2.53,6.51,2.53,7,0,10.5-3.3,10.5-9.91v-34.22h11.07"/>
    <polyline class="cls-7" points="92.26 265.48 92.26 283.06 81.41 283.06 81.41 231.11 92.26 231.11 92.26 252.24 112.08 231.11 126.12 231.11 104.92 252.38 127.35 283.06 113.39 283.06 97.32 260.27 92.26 265.48"/>
    <g class="cls-8">
      <polyline class="cls-4" points="27.76 27.27 27.76 41.37 59.33 104.52 59.33 90.42 27.76 27.27 27.76 27.27"/>
      <polyline class="cls-4" points="90.9 139.46 90.9 153.56 122.45 216.68 122.47 216.68 122.47 209.67 122.47 209.66 122.47 202.61 122.47 202.61 90.9 139.45 90.9 139.46"/>
      <polyline class="cls-4" points="90.9 76.3 90.9 90.4 122.46 27.26 115.41 27.26 90.9 76.3"/>
      <polyline class="cls-4" points="59.34 153.56 27.79 216.68 34.84 216.68 59.34 167.66 59.34 160.61 59.34 160.61 59.34 153.56"/>
      <polyline class="cls-2" points="38.36 216.68 59.33 216.68 59.33 174.73 38.36 216.68"/>
      <polyline class="cls-2" points="91.34 216.68 111.87 216.68 90.9 174.73 90.9 216.68 91.34 216.68"/>
      <polyline class="cls-2" points="27.76 48.43 27.76 106.19 56.63 106.19 27.76 48.43"/>
      <polyline class="cls-2" points="27.76 195.53 56.65 137.75 27.76 137.75 27.76 195.53"/>
      <polyline class="cls-2" points="111.88 27.26 90.9 27.26 90.9 69.24 111.88 27.26"/>
      <polyline class="cls-2" points="122.47 195.54 122.47 137.75 93.58 137.75 122.47 195.54"/>
      <polyline class="cls-2" points="59.28 27.23 38.31 27.23 59.3 69.21 59.3 27.23 59.28 27.23"/>
      <polyline class="cls-2" points="122.47 105.96 122.47 48.43 93.6 106.19 122.47 106.19 122.47 105.96"/>
      <polyline class="cls-7" points="90.9 216.68 90.9 174.73 111.87 216.68 122.44 216.68 90.9 153.57 90.9 153.56 90.9 146.51 90.9 146.51 90.9 139.46 90.9 139.45 122.47 202.61 122.47 195.54 93.58 137.75 122.47 137.75 122.47 131.44 84.59 131.44 84.59 216.68 90.9 216.68"/>
      <polyline class="cls-7" points="56.65 137.75 27.76 195.53 27.76 216.68 27.78 216.68 59.33 153.55 59.33 153.56 59.33 160.61 59.33 160.61 59.33 167.66 59.33 167.67 34.83 216.68 38.36 216.68 59.33 174.73 59.33 216.68 65.64 216.68 65.64 131.44 27.76 131.44 27.76 137.75 56.65 137.75"/>
      <polyline class="cls-7" points="122.47 112.5 122.47 106.19 93.6 106.19 122.47 48.43 122.47 41.36 122.47 41.36 122.47 34.31 122.47 34.3 122.47 27.26 122.46 27.26 90.9 90.41 90.9 90.4 90.9 83.36 90.9 83.35 90.9 76.3 90.9 76.3 115.41 27.26 111.88 27.26 90.9 69.24 90.9 27.26 84.59 27.26 84.59 112.5 122.47 112.5"/>
      <polyline class="cls-7" points="59.33 90.41 59.33 104.53 27.76 41.37 27.76 48.43 56.63 106.19 27.76 106.19 27.76 112.5 65.64 112.5 65.64 27.26 59.33 27.26 59.33 69.24 59.33 69.24 38.34 27.27 34.82 27.27 34.81 27.27 34.81 27.26 31.29 27.26 27.76 27.26 59.33 90.41"/>
      <polyline class="cls-4" points="27.76 112.5 27.76 131.44 65.64 131.44 65.64 216.68 84.59 216.68 84.59 131.44 122.47 131.44 122.47 112.5 84.59 112.5 84.59 27.26 65.64 27.26 65.64 112.5 27.76 112.5"/>
      <path class="cls-6" d="M122.47,216.68V27.23s-94.71,0-94.71,0v189.44s94.71,0,94.71,0M121.35,215.56V28.35s-92.48,0-92.48,0v187.22s92.48,0,92.48,0"/>
    </g>
    <polyline points="776.41 298.54 775.57 298.54 774.11 293.78 774.94 293.78 775.7 296.53 775.98 297.55 776.23 296.57 776.99 293.78 777.82 293.78 778.53 296.54 778.77 297.45 779.04 296.53 779.86 293.78 780.64 293.78 779.15 298.54 778.32 298.54 777.56 295.69 777.37 294.88 776.41 298.54"/>
    <polyline points="783.04 298.54 782.2 298.54 780.74 293.78 781.58 293.78 782.33 296.53 782.61 297.55 782.86 296.57 783.62 293.78 784.45 293.78 785.16 296.54 785.4 297.45 785.67 296.53 786.49 293.78 787.27 293.78 785.78 298.54 784.95 298.54 784.19 295.69 784 294.88 783.04 298.54"/>
    <polyline points="789.67 298.54 788.83 298.54 787.37 293.78 788.21 293.78 788.96 296.53 789.24 297.55 789.49 296.57 790.25 293.78 791.08 293.78 791.79 296.54 792.03 297.45 792.3 296.53 793.12 293.78 793.9 293.78 792.41 298.54 791.58 298.54 790.82 295.69 790.63 294.88 789.67 298.54"/>
    <rect x="794.81" y="297.62" width=".92" height=".92"/>
    <path d="M797.94,300.36h-.81v-6.59h.73v.62c.35-.48.76-.73,1.38-.73.41,0,.77.1,1.08.31.31.21.55.51.7.89.16.38.24.8.24,1.25,0,.49-.09.93-.27,1.32-.17.39-.42.69-.76.9-.33.21-.68.31-1.05.31-.54,0-.98-.26-1.25-.6v2.32M797.86,296.19c0,.61.13,1.07.37,1.36.25.29.55.44.9.44s.66-.15.92-.45c.26-.3.39-.78.39-1.41,0-.61-.13-1.06-.38-1.36-.25-.3-.55-.45-.89-.45s-.65.16-.91.48c-.26.32-.4.78-.4,1.4"/>
    <rect x="802.22" y="291.97" width=".81" height="6.57"/>
    <path d="M807.38,297.95c-.3.26-.59.43-.86.54-.27.1-.57.16-.89.16-.52,0-.92-.13-1.21-.38-.28-.26-.42-.58-.42-.98,0-.72.53-1.21,1.16-1.37.16-.04.4-.08.72-.12.65-.08,1.13-.17,1.44-.28,0-.11,0-.18,0-.21,0-.33-.08-.56-.23-.69-.21-.18-.51-.27-.92-.27-.38,0-.66.07-.84.2-.18.13-.31.37-.4.7l-.79-.11c.07-.34.19-.61.35-.82.33-.42.97-.65,1.79-.65.41,0,.74.05.99.14.51.19.72.47.81.91.03.14.04.39.04.74v1.08c0,.75.01,1.22.05,1.43.03.2.1.39.21.57h-.84c-.09-.17-.14-.36-.16-.59M807.32,296.45v-.3c-.29.12-.73.22-1.32.3-.33.05-.57.1-.7.16-.27.12-.43.36-.43.65s.33.75.96.75,1.14-.29,1.36-.76c.09-.18.13-.45.13-.81"/>
    <path d="M811.14,297.82l.12.71c-.23.05-.43.07-.61.07-.29,0-.52-.04-.68-.14-.16-.09-.27-.21-.34-.36-.07-.15-.1-.47-.1-.96v-2.74s-.59,0-.59,0v-.63h.59s0-1.18,0-1.18l.8-.48v1.66s.81,0,.81,0v.63h-.81s0,2.78,0,2.78c0,.23.01.38.04.44.06.13.18.22.42.22.09,0,.21,0,.35-.03"/>
    <path d="M815.19,297.01l.83.1c-.27.97-.99,1.54-2.09,1.54-.7,0-1.25-.21-1.66-.64-.41-.43-.61-1.03-.61-1.81s.21-1.42.62-1.86c.41-.44.95-.66,1.6-.66s1.16.22,1.56.65c.4.44.61,1.04.61,1.83,0,.05,0,.12,0,.21h-3.55c.03.52.18.92.44,1.2.26.28.6.42.99.42.59,0,1.01-.3,1.26-.98M812.54,295.7h2.66c-.04-.4-.14-.7-.3-.9-.26-.31-.59-.47-1-.47-.37,0-.68.12-.94.37-.25.25-.39.58-.42,1"/>
    <path d="M817,300.37l-.09-.76c.17.05.33.07.46.07.36,0,.56-.12.7-.34.05-.08.14-.28.25-.6.01-.04.04-.11.07-.2l-1.81-4.77h.87s.99,2.76.99,2.76c.13.35.24.72.35,1.1.09-.37.2-.73.33-1.08l1.02-2.77h.81s-1.81,4.84-1.81,4.84c-.2.52-.35.88-.45,1.08-.29.53-.64.77-1.16.77-.16,0-.33-.03-.52-.1"/>
    <rect x="821.86" y="297.62" width=".92" height=".92"/>
    <path d="M828.02,298.54h-.72v-.7c-.37.54-.87.81-1.51.81-.28,0-.54-.05-.79-.16-.48-.21-.69-.53-.79-1-.03-.16-.05-.41-.05-.75v-2.95h.81v2.64c0,.42.02.7.05.85.1.43.45.68.93.68.24,0,.47-.06.68-.18.21-.12.36-.3.45-.51.09-.22.13-.52.13-.93v-2.55h.81v4.76"/>
    <polyline points="830.1 298.54 829.29 298.54 829.29 291.97 830.1 291.97 830.1 295.72 832.01 293.78 833.05 293.78 831.23 295.55 833.24 298.54 832.24 298.54 830.67 296.11 830.1 296.65 830.1 298.54"/>
    <path d="M771.53,300.47H158.85c-6.26,0-11.34-5.08-11.34-11.34V25.51c0-6.26,5.08-11.34,11.34-11.34h644.82v2.83H158.85c-4.7,0-8.51,3.81-8.51,8.5v263.62c0,4.7,3.81,8.5,8.51,8.5h612.68v2.83"/>
    <path d="M835.82,300.47h612.68c6.26,0,11.34-5.08,11.34-11.34V25.51c0-6.26-5.08-11.34-11.34-11.34h-644.83s0,2.83,0,2.83h644.83c4.7,0,8.5,3.81,8.5,8.5v263.62c0,4.7-3.81,8.5-8.5,8.5h-612.68s0,2.83,0,2.83"/>
  </g>
</svg>